<svg xmlns="http://www.w3.org/2000/svg" viewBox="0 0 278.09 320.16"><defs><style>.cls-1{fill:#43a047;}.cls-2{fill:none;stroke:#43a047;stroke-linecap:round;stroke-miterlimit:10;stroke-width:3px;}</style></defs><title>Asset 9@128</title><g id="Layer_2" data-name="Layer 2"><g id="Layer_1-2" data-name="Layer 1"><path class="cls-1" d="M278.09,81.34V238.81a2.54,2.54,0,0,1-1.39,2.32L140.32,319.81a2.74,2.74,0,0,1-2.66,0L1.39,241.13A2.78,2.78,0,0,1,0,238.81V81.34A2.54,2.54,0,0,1,1.39,79L137.66.35a2.69,2.69,0,0,1,2.66,0l66.86,38.58a2.79,2.79,0,0,1,1.39,2.32V75.09a2.67,2.67,0,0,1-4,2.31l-64.08-37a2.76,2.76,0,0,0-2.67,0L36.15,99.07a2.78,2.78,0,0,0-1.39,2.32V218.77a2.55,2.55,0,0,0,1.39,2.31l101.62,58.64a2.76,2.76,0,0,0,2.67,0l101.5-58.64a2.78,2.78,0,0,0,1.39-2.31V64.43a2.68,2.68,0,0,1,4.06-2.32L276.7,79A2.54,2.54,0,0,1,278.09,81.34Z"/><rect class="cls-1" x="121.67" y="168.02" width="34.76" height="112.16" rx="2"/><rect class="cls-1" x="69.52" y="203.7" width="34.76" height="76.36" rx="2"/><rect class="cls-1" x="173.69" y="137.08" width="34.76" height="142.99" rx="2"/><circle class="cls-1" cx="140.26" cy="139.3" r="8.69"/><path class="cls-2" d="M69.82,181.46c34.47-4.32,50.71-19.3,69.75-39.71,20.79-22.29,34.12-43.37,68.71-46.36"/></g></g></svg>